<svg width="14" height="15" viewBox="0 0 14 15" fill="none" xmlns="http://www.w3.org/2000/svg">
<path d="M1.3125 15C0.9625 15 0.65625 14.8875 0.39375 14.6625C0.13125 14.4375 0 14.175 0 13.875V1.125C0 0.825 0.13125 0.5625 0.39375 0.3375C0.65625 0.1125 0.9625 0 1.3125 0H12.6875C13.0375 0 13.3438 0.1125 13.6062 0.3375C13.8687 0.5625 14 0.825 14 1.125V13.875C14 14.175 13.8687 14.4375 13.6062 14.6625C13.3438 14.8875 13.0375 15 12.6875 15H1.3125ZM7.13125 1.125V5.64375C7.13125 5.74375 7.18229 5.82188 7.28437 5.87813C7.38646 5.93438 7.49583 5.9375 7.6125 5.8875L8.925 5.23125C9.02708 5.18125 9.13281 5.15625 9.24219 5.15625C9.35156 5.15625 9.46458 5.18125 9.58125 5.23125L10.8719 5.8875C10.9885 5.9375 11.1016 5.93438 11.2109 5.87813C11.3203 5.82188 11.375 5.74375 11.375 5.64375V1.125H7.13125Z" fill="url(#paint0_linear_37_80)"/>
<defs>
<linearGradient id="paint0_linear_37_80" x1="7" y1="0" x2="7" y2="15" gradientUnits="userSpaceOnUse">
<stop stop-color="#2617D9"/>
<stop offset="1" stop-color="#31257C"/>
</linearGradient>
</defs>
</svg>
