<svg width="14" height="15" viewBox="0 0 14 15" fill="none" xmlns="http://www.w3.org/2000/svg">
<path d="M7 15C6.02 15 5.10417 14.8031 4.2525 14.4094C3.40083 14.0156 2.66 13.4813 2.03 12.8063C1.4 12.1313 0.904167 11.3344 0.5425 10.4156C0.180833 9.49688 0 8.5125 0 7.4625C0 6.4125 0.180833 5.43438 0.5425 4.52813C0.904167 3.62188 1.4 2.83125 2.03 2.15625C2.66 1.48125 3.40083 0.953125 4.2525 0.571875C5.10417 0.190625 6.02 0 7 0C7.98 0 8.89583 0.190625 9.7475 0.571875C10.5992 0.953125 11.34 1.48125 11.97 2.15625C12.6 2.83125 13.0958 3.62188 13.4575 4.52813C13.8192 5.43438 14 6.4125 14 7.4625C14 8.5125 13.8192 9.49688 13.4575 10.4156C13.0958 11.3344 12.6 12.1313 11.97 12.8063C11.34 13.4813 10.5992 14.0156 9.7475 14.4094C8.89583 14.8031 7.98 15 7 15ZM7 13.9125C7.40833 13.4625 7.74958 12.9469 8.02375 12.3656C8.29792 11.7844 8.5225 11.0938 8.6975 10.2938H5.32C5.48333 11.0438 5.70208 11.7188 5.97625 12.3188C6.25042 12.9188 6.59167 13.45 7 13.9125ZM5.5125 13.6875C5.22083 13.2125 4.97 12.7 4.76 12.15C4.55 11.6 4.375 10.9813 4.235 10.2938H1.61C2.05333 11.1813 2.56667 11.8781 3.15 12.3844C3.73333 12.8906 4.52083 13.325 5.5125 13.6875ZM8.505 13.6688C9.345 13.3813 10.1004 12.95 10.7712 12.375C11.4421 11.8 11.9817 11.1063 12.39 10.2938H9.7825C9.63083 10.9688 9.45292 11.5813 9.24875 12.1313C9.04458 12.6813 8.79667 13.1938 8.505 13.6688ZM1.26 9.16875H4.0425C4.0075 8.83125 3.98708 8.52813 3.98125 8.25938C3.97542 7.99063 3.9725 7.725 3.9725 7.4625C3.9725 7.15 3.97833 6.87188 3.99 6.62813C4.00167 6.38438 4.025 6.1125 4.06 5.8125H1.26C1.17833 6.1125 1.12292 6.38125 1.09375 6.61875C1.06458 6.85625 1.05 7.1375 1.05 7.4625C1.05 7.7875 1.06458 8.07812 1.09375 8.33438C1.12292 8.59063 1.17833 8.86875 1.26 9.16875ZM5.1275 9.16875H8.89C8.93667 8.78125 8.96583 8.46563 8.9775 8.22188C8.98917 7.97813 8.995 7.725 8.995 7.4625C8.995 7.2125 8.98917 6.97188 8.9775 6.74063C8.96583 6.50938 8.93667 6.2 8.89 5.8125H5.1275C5.08083 6.2 5.05167 6.50938 5.04 6.74063C5.02833 6.97188 5.0225 7.2125 5.0225 7.4625C5.0225 7.725 5.02833 7.97813 5.04 8.22188C5.05167 8.46563 5.08083 8.78125 5.1275 9.16875ZM9.94 9.16875H12.74C12.8217 8.86875 12.8771 8.59063 12.9062 8.33438C12.9354 8.07812 12.95 7.7875 12.95 7.4625C12.95 7.1375 12.9354 6.85625 12.9062 6.61875C12.8771 6.38125 12.8217 6.1125 12.74 5.8125H9.9575C9.9925 6.25 10.0158 6.58438 10.0275 6.81563C10.0392 7.04688 10.045 7.2625 10.045 7.4625C10.045 7.7375 10.0363 7.99688 10.0188 8.24063C10.0013 8.48438 9.975 8.79375 9.94 9.16875ZM9.765 4.6875H12.39C12.005 3.825 11.4771 3.10625 10.8062 2.53125C10.1354 1.95625 9.3625 1.55 8.4875 1.3125C8.77917 1.775 9.02708 2.275 9.23125 2.8125C9.43542 3.35 9.61333 3.975 9.765 4.6875ZM5.32 4.6875H8.715C8.58667 4.025 8.37083 3.38438 8.0675 2.76562C7.76417 2.14688 7.40833 1.6 7 1.125C6.62667 1.4625 6.31167 1.90625 6.055 2.45625C5.79833 3.00625 5.55333 3.75 5.32 4.6875ZM1.61 4.6875H4.2525C4.38083 4.0125 4.54417 3.40938 4.7425 2.87813C4.94083 2.34688 5.19167 1.83125 5.495 1.33125C4.62 1.56875 3.85583 1.96875 3.2025 2.53125C2.54917 3.09375 2.01833 3.8125 1.61 4.6875Z" fill="url(#paint0_linear_37_81)"/>
<defs>
<linearGradient id="paint0_linear_37_81" x1="7" y1="0" x2="7" y2="15" gradientUnits="userSpaceOnUse">
<stop stop-color="#2617D9"/>
<stop offset="1" stop-color="#31257C"/>
</linearGradient>
</defs>
</svg>
