<svg width="270" height="48" viewBox="0 0 270 48" fill="none" xmlns="http://www.w3.org/2000/svg">
<path d="M13.288 33.96C13.288 36.616 12.808 38.808 11.848 40.536C10.92 42.264 9.672 43.608 8.104 44.568C6.568 45.56 4.728 46.408 2.584 47.112L0.472 41.544C1.88 41 2.936 40.376 3.64 39.672C4.344 38.968 4.808 38.152 5.032 37.224C5.288 36.296 5.416 35.112 5.416 33.672V5.736H13.288V33.96ZM30.2504 12.696C34.1544 12.696 37.2104 13.896 39.4184 16.296C41.6264 18.664 42.7304 21.992 42.7304 26.28C42.7304 29 42.2184 31.384 41.1944 33.432C40.2024 35.448 38.7624 37.016 36.8744 38.136C35.0184 39.256 32.8104 39.816 30.2504 39.816C26.3784 39.816 23.3224 38.632 21.0824 36.264C18.8744 33.864 17.7704 30.52 17.7704 26.232C17.7704 23.512 18.2664 21.144 19.2584 19.128C20.2824 17.08 21.7224 15.496 23.5784 14.376C25.4664 13.256 27.6904 12.696 30.2504 12.696ZM30.2504 18.264C28.7144 18.264 27.5624 18.92 26.7944 20.232C26.0264 21.512 25.6424 23.512 25.6424 26.232C25.6424 29.016 26.0104 31.048 26.7464 32.328C27.5144 33.608 28.6824 34.248 30.2504 34.248C31.7864 34.248 32.9384 33.608 33.7064 32.328C34.4744 31.016 34.8584 29 34.8584 26.28C34.8584 23.496 34.4744 21.464 33.7064 20.184C32.9704 18.904 31.8184 18.264 30.2504 18.264ZM67.0289 31.608C67.0289 32.568 67.1569 33.272 67.4129 33.72C67.7009 34.168 68.1489 34.504 68.7569 34.728L67.1729 39.672C65.6049 39.544 64.3249 39.208 63.3329 38.664C62.3409 38.088 61.5729 37.192 61.0289 35.976C59.3649 38.536 56.8049 39.816 53.3489 39.816C50.8209 39.816 48.8049 39.08 47.3009 37.608C45.7969 36.136 45.0449 34.216 45.0449 31.848C45.0449 29.064 46.0689 26.936 48.1169 25.464C50.1649 23.992 53.1249 23.256 56.9969 23.256H59.5889V22.152C59.5889 20.648 59.2689 19.624 58.6289 19.08C57.9889 18.504 56.8689 18.216 55.2689 18.216C54.4369 18.216 53.4289 18.344 52.2449 18.6C51.0609 18.824 49.8449 19.144 48.5969 19.56L46.8689 14.568C48.4689 13.96 50.1009 13.496 51.7649 13.176C53.4609 12.856 55.0289 12.696 56.4689 12.696C60.1169 12.696 62.7889 13.448 64.4849 14.952C66.1809 16.456 67.0289 18.712 67.0289 21.72V31.608ZM55.5569 34.392C57.2849 34.392 58.6289 33.576 59.5889 31.944V27.432H57.7169C55.9889 27.432 54.6929 27.736 53.8289 28.344C52.9969 28.952 52.5809 29.896 52.5809 31.176C52.5809 32.2 52.8369 33 53.3489 33.576C53.8929 34.12 54.6289 34.392 55.5569 34.392ZM59.5889 8.52C58.8849 8.52 58.2769 8.408 57.7649 8.184C57.2529 7.96 56.6929 7.64 56.0849 7.224C55.2849 6.648 54.6289 6.36 54.1169 6.36C53.5729 6.36 53.1089 6.536 52.7249 6.888C52.3729 7.208 51.9889 7.736 51.5729 8.472L47.7809 6.648C48.4209 4.984 49.2689 3.624 50.3249 2.568C51.4129 1.512 52.6289 0.983997 53.9729 0.983997C54.7089 0.983997 55.3329 1.112 55.8449 1.368C56.3889 1.592 56.9809 1.912 57.6209 2.328C58.0689 2.616 58.4209 2.824 58.6769 2.952C58.9649 3.08 59.2529 3.144 59.5409 3.144C60.0529 3.144 60.4849 2.984 60.8369 2.664C61.2209 2.312 61.6209 1.768 62.0369 1.032L65.8289 2.904C65.1569 4.6 64.2769 5.96 63.1889 6.984C62.1329 8.008 60.9329 8.52 59.5889 8.52ZM84.1098 12.696C88.0138 12.696 91.0698 13.896 93.2778 16.296C95.4858 18.664 96.5898 21.992 96.5898 26.28C96.5898 29 96.0778 31.384 95.0538 33.432C94.0618 35.448 92.6218 37.016 90.7338 38.136C88.8778 39.256 86.6698 39.816 84.1098 39.816C80.2378 39.816 77.1818 38.632 74.9418 36.264C72.7338 33.864 71.6298 30.52 71.6298 26.232C71.6298 23.512 72.1258 21.144 73.1178 19.128C74.1418 17.08 75.5818 15.496 77.4378 14.376C79.3258 13.256 81.5498 12.696 84.1098 12.696ZM84.1098 18.264C82.5738 18.264 81.4218 18.92 80.6538 20.232C79.8858 21.512 79.5018 23.512 79.5018 26.232C79.5018 29.016 79.8698 31.048 80.6058 32.328C81.3738 33.608 82.5418 34.248 84.1098 34.248C85.6458 34.248 86.7978 33.608 87.5658 32.328C88.3338 31.016 88.7178 29 88.7178 26.28C88.7178 23.496 88.3338 21.464 87.5658 20.184C86.8298 18.904 85.6778 18.264 84.1098 18.264ZM127.036 4.92C131.324 4.92 135.02 6.28 138.124 9L134.14 13.176C132.956 12.28 131.852 11.64 130.828 11.256C129.836 10.84 128.684 10.632 127.372 10.632C124.908 10.632 122.94 11.608 121.468 13.56C119.996 15.48 119.26 18.408 119.26 22.344C119.26 26.6 119.82 29.624 120.94 31.416C122.06 33.176 123.804 34.056 126.172 34.056C127.836 34.056 129.34 33.688 130.684 32.952V25.416H126.364L125.596 19.848H138.316V36.312C136.588 37.432 134.684 38.296 132.604 38.904C130.524 39.512 128.444 39.816 126.364 39.816C121.308 39.816 117.5 38.344 114.94 35.4C112.38 32.424 111.1 28.072 111.1 22.344C111.1 18.696 111.788 15.56 113.164 12.936C114.572 10.312 116.476 8.328 118.876 6.984C121.308 5.608 124.028 4.92 127.036 4.92ZM163.685 31.608C163.685 32.568 163.813 33.272 164.069 33.72C164.357 34.168 164.805 34.504 165.413 34.728L163.829 39.672C162.261 39.544 160.981 39.208 159.989 38.664C158.997 38.088 158.229 37.192 157.685 35.976C156.021 38.536 153.461 39.816 150.005 39.816C147.477 39.816 145.461 39.08 143.957 37.608C142.453 36.136 141.701 34.216 141.701 31.848C141.701 29.064 142.725 26.936 144.773 25.464C146.821 23.992 149.781 23.256 153.653 23.256H156.245V22.152C156.245 20.648 155.925 19.624 155.285 19.08C154.645 18.504 153.525 18.216 151.925 18.216C151.093 18.216 150.085 18.344 148.901 18.6C147.717 18.824 146.501 19.144 145.253 19.56L143.525 14.568C145.125 13.96 146.757 13.496 148.421 13.176C150.117 12.856 151.685 12.696 153.125 12.696C156.773 12.696 159.445 13.448 161.141 14.952C162.837 16.456 163.685 18.712 163.685 21.72V31.608ZM152.213 34.392C153.941 34.392 155.285 33.576 156.245 31.944V27.432H154.373C152.645 27.432 151.349 27.736 150.485 28.344C149.653 28.952 149.237 29.896 149.237 31.176C149.237 32.2 149.493 33 150.005 33.576C150.549 34.12 151.285 34.392 152.213 34.392ZM184.174 12.696C187.214 12.696 189.55 13.896 191.182 16.296C192.814 18.664 193.63 21.992 193.63 26.28C193.63 28.904 193.214 31.24 192.382 33.288C191.582 35.336 190.414 36.936 188.878 38.088C187.374 39.24 185.582 39.816 183.502 39.816C182.126 39.816 180.862 39.528 179.71 38.952C178.59 38.376 177.63 37.576 176.83 36.552L176.446 39H169.726V3.384L177.31 2.568V16.104C178.078 15.048 179.054 14.216 180.238 13.608C181.454 13 182.766 12.696 184.174 12.696ZM181.294 34.296C184.27 34.296 185.758 31.624 185.758 26.28C185.758 23.24 185.406 21.144 184.702 19.992C183.998 18.84 182.974 18.264 181.63 18.264C179.934 18.264 178.494 19.256 177.31 21.24V31.848C177.79 32.616 178.366 33.224 179.038 33.672C179.742 34.088 180.494 34.296 181.294 34.296ZM212.191 12.792C213.119 12.792 213.967 12.904 214.735 13.128L213.535 20.472C212.575 20.248 211.807 20.136 211.231 20.136C209.727 20.136 208.575 20.664 207.775 21.72C207.007 22.744 206.399 24.296 205.951 26.376V39H198.367V13.512H204.991L205.615 18.456C206.191 16.696 207.055 15.32 208.207 14.328C209.391 13.304 210.719 12.792 212.191 12.792ZM225.216 13.512V39H217.632V13.512H225.216ZM221.376 0.0719976C222.688 0.0719976 223.76 0.487998 224.592 1.32C225.456 2.12 225.888 3.144 225.888 4.392C225.888 5.64 225.456 6.68 224.592 7.512C223.76 8.312 222.688 8.712 221.376 8.712C220.064 8.712 218.992 8.312 218.16 7.512C217.328 6.68 216.912 5.64 216.912 4.392C216.912 3.144 217.328 2.12 218.16 1.32C218.992 0.487998 220.064 0.0719976 221.376 0.0719976ZM253.403 25.752C253.403 26.808 253.355 27.72 253.259 28.488H237.467C237.723 30.632 238.331 32.136 239.291 33C240.251 33.864 241.579 34.296 243.275 34.296C244.299 34.296 245.291 34.12 246.251 33.768C247.211 33.384 248.251 32.808 249.371 32.04L252.491 36.264C249.515 38.632 246.203 39.816 242.555 39.816C238.427 39.816 235.259 38.6 233.051 36.168C230.843 33.736 229.739 30.472 229.739 26.376C229.739 23.784 230.203 21.464 231.131 19.416C232.059 17.336 233.419 15.704 235.211 14.52C237.003 13.304 239.147 12.696 241.643 12.696C245.323 12.696 248.203 13.848 250.283 16.152C252.363 18.456 253.403 21.656 253.403 25.752ZM245.963 23.592C245.899 19.688 244.523 17.736 241.835 17.736C240.523 17.736 239.499 18.216 238.763 19.176C238.059 20.136 237.627 21.72 237.467 23.928H245.963V23.592ZM264.432 39.816C262.224 39.816 260.496 39.192 259.248 37.944C258.032 36.664 257.424 34.856 257.424 32.52V3.384L265.008 2.568V32.232C265.008 33.288 265.44 33.816 266.304 33.816C266.752 33.816 267.168 33.736 267.552 33.576L269.04 38.952C267.664 39.528 266.128 39.816 264.432 39.816Z" fill="#121212"/>
</svg>
